<?xml version="1.0" encoding="UTF-8"?>
<svg width="36px" height="36px" viewBox="0 0 36 36" version="1.1" xmlns="http://www.w3.org/2000/svg" xmlns:xlink="http://www.w3.org/1999/xlink">
  <title>Decentraland</title>
  <defs>
    <linearGradient x1="85.35535%" y1="14.644675%" x2="14.644675%" y2="85.35535%" id="decentraland-gradient-1">
      <stop stop-color="#FF2D55" offset="0%" />
      <stop stop-color="#FFBC5B" offset="100%" />
    </linearGradient>
    <linearGradient x1="49.9664%" y1="0.000666667%" x2="49.9664%" y2="100.000067%" id="decentraland-gradient-2">
      <stop stop-color="#A524B3" offset="0%" />
      <stop stop-color="#FF2D55" offset="100%" />
    </linearGradient>
  </defs>
  <circle fill="url(#decentraland-gradient-1)" cx="18" cy="18" r="18" />
  <g transform="translate(1.44 11.7)">
    <polygon fill="url(#decentraland-gradient-2)" points="11.313 0 11.313 13.5 22.563 13.5" />
    <polygon fill="#FFFFFF" points="0.063 13.5 11.313 13.5 11.313 0" />
  </g>
  <path d="M7.2,32.4 C10.206,34.659 13.95,36 18,36 C22.05,36 25.794,34.659 28.8,32.4 L7.2,32.4 Z" fill="#FF2D55" />
  <path d="M3.6,28.8 C4.626,30.159 5.841,31.374 7.2,32.4 L28.8,32.4 C30.159,31.374 31.374,30.159 32.4,28.8 L3.6,28.8 Z" fill="#FC9965" />
  <path d="M24.147,25.2 L1.503,25.2 C2.061,26.487 2.772,27.693 3.6,28.8 L24.156,28.8 L24.156,25.2 L24.147,25.2 Z" fill="#FFBC5B" />
  <g transform="translate(15.84 18.9)">
    <polygon fill="url(#decentraland-gradient-2)" points="8.307 0 8.307 9.9 16.56 9.9" />
    <polygon fill="#FFFFFF" points="0.063 9.9 8.307 9.9 8.307 0" />
  </g>
  <circle fill="#FFC95B" cx="24.147" cy="11.7" r="4.5" />
  <circle fill="#FFC95B" cx="12.753" cy="6.75" r="2.25" />
</svg>
